<?xml version="1.0" encoding="UTF-8" standalone="no"?>
<svg
   xmlns:dc="http://purl.org/dc/elements/1.1/"
   xmlns:cc="http://creativecommons.org/ns#"
   xmlns:rdf="http://www.w3.org/1999/02/22-rdf-syntax-ns#"
   xmlns:svg="http://www.w3.org/2000/svg"
   xmlns="http://www.w3.org/2000/svg"
   xmlns:sodipodi="http://sodipodi.sourceforge.net/DTD/sodipodi-0.dtd"
   xmlns:inkscape="http://www.inkscape.org/namespaces/inkscape"
   width="610pt"
   height="177pt"
   viewBox="0 0 610 177"
   version="1.1"
   id="svg3053"
   inkscape:version="0.48.2 r9819"
   sodipodi:docname="mtb_highres.svg">
  <metadata
     id="metadata3119">
    <rdf:RDF>
      <cc:Work
         rdf:about="">
        <dc:format>image/svg+xml</dc:format>
        <dc:type
           rdf:resource="http://purl.org/dc/dcmitype/StillImage" />
      </cc:Work>
    </rdf:RDF>
  </metadata>
  <defs
     id="defs3117" />
  <sodipodi:namedview
     pagecolor="#ffffff"
     bordercolor="#666666"
     borderopacity="1"
     objecttolerance="10"
     gridtolerance="10"
     guidetolerance="10"
     inkscape:pageopacity="0"
     inkscape:pageshadow="2"
     inkscape:window-width="1366"
     inkscape:window-height="716"
     id="namedview3115"
     showgrid="false"
     inkscape:zoom="1.6209836"
     inkscape:cx="466.40063"
     inkscape:cy="95.21984"
     inkscape:window-x="-8"
     inkscape:window-y="-8"
     inkscape:window-maximized="1"
     inkscape:current-layer="svg3053" />
  <path
     d=" M 0.00 0.00 L 596.06 0.00 C 600.42 1.98 605.37 0.68 610.00 0.98 L 610.00 177.00 L 0.00 177.00 L 0.00 0.00 Z"
     id="path3055"
     fill="#ffffff" />
  <path
     fill="#123eca"
     d=" M 596.06 0.00 L 610.00 0.00 L 610.00 0.98 C 605.37 0.68 600.42 1.98 596.06 0.00 Z"
     id="path3057" />
  <path
     fill="#123eca"
     d=" M 61.58 19.36 C 65.42 19.46 69.26 19.43 73.10 19.37 C 72.43 22.09 71.70 24.80 70.97 27.50 C 67.04 27.58 63.12 27.56 59.19 27.64 C 59.95 24.87 60.72 22.10 61.58 19.36 Z"
     id="path3059" />
  <path
     fill="#123eca"
     d=" M 84.56 19.46 C 88.67 19.42 92.78 19.33 96.89 19.34 C 96.12 22.08 95.40 24.83 94.58 27.55 C 90.47 27.59 86.36 27.57 82.25 27.53 C 83.00 24.84 83.73 22.14 84.56 19.46 Z"
     id="path3061" />
  <path
     fill="#123eca"
     d=" M 108.31 19.37 C 116.48 19.42 124.64 19.52 132.80 19.32 C 132.05 22.14 131.34 24.96 130.32 27.69 C 122.16 27.41 113.99 27.67 105.82 27.64 C 106.54 24.85 107.43 22.11 108.31 19.37 Z"
     id="path3063" />
  <path
     fill="#123eca"
     d=" M 141.93 27.58 C 142.53 24.86 143.25 22.17 144.02 19.50 C 154.98 19.41 165.95 19.38 176.92 19.47 C 176.20 22.20 175.41 24.91 174.60 27.61 C 163.71 27.47 152.82 27.70 141.93 27.58 Z"
     id="path3065" />
  <path
     fill="#123eca"
     d=" M 186.00 27.53 C 186.75 24.77 187.59 22.04 188.47 19.32 C 202.63 19.48 216.80 19.39 230.96 19.41 C 243.16 19.96 255.38 19.56 267.58 19.68 C 276.02 50.85 283.75 82.22 292.68 113.25 C 295.96 102.60 298.43 91.73 301.42 81.00 C 306.40 60.74 312.40 40.73 316.95 20.38 C 319.53 19.45 322.30 19.69 324.99 19.66 C 336.26 19.74 347.53 19.58 358.79 19.77 C 359.76 25.09 358.96 30.63 359.12 36.03 C 359.56 47.69 358.19 59.35 359.12 71.00 C 359.38 73.98 359.03 76.96 358.89 79.94 C 359.49 89.24 358.26 98.57 359.05 107.87 C 358.73 113.88 359.55 119.90 358.97 125.91 C 358.59 130.62 358.89 135.34 358.99 140.06 C 358.77 145.94 358.56 151.85 359.30 157.71 C 350.68 157.91 342.05 157.93 333.43 158.25 C 333.30 128.83 333.39 99.42 333.31 70.01 C 333.33 63.78 333.50 57.55 333.06 51.34 C 331.35 56.32 330.34 61.50 328.88 66.56 C 328.27 68.90 327.32 71.25 327.77 73.71 C 327.24 72.89 326.55 72.24 325.53 72.54 L 327.20 73.07 C 323.68 87.77 319.79 102.38 316.15 117.05 C 316.62 117.16 317.56 117.38 318.02 117.49 C 317.53 117.43 316.53 117.32 316.04 117.27 C 312.85 130.80 308.94 144.16 306.07 157.77 C 297.05 158.68 287.97 157.97 278.93 157.73 C 270.43 122.19 261.28 86.78 252.49 51.31 C 251.47 59.04 252.17 66.85 252.00 74.62 C 252.50 74.90 253.49 75.45 253.98 75.73 C 253.44 75.54 252.37 75.15 251.83 74.96 C 251.83 79.35 251.86 83.75 251.82 88.14 C 253.01 89.31 254.70 91.20 251.90 91.63 C 251.81 98.09 251.96 104.55 252.12 111.02 L 253.88 109.93 C 253.12 110.80 251.67 111.48 251.90 112.88 C 251.68 127.99 252.20 143.11 251.81 158.22 C 244.81 158.25 237.83 158.01 230.85 157.91 C 230.42 157.06 230.00 156.20 229.59 155.34 C 228.90 156.50 228.19 157.66 227.46 158.80 C 225.79 157.68 226.35 155.62 226.19 153.97 C 226.16 150.98 226.18 148.00 226.21 145.02 C 225.36 144.50 224.51 143.98 223.66 143.48 C 224.30 143.79 225.58 144.43 226.21 144.74 C 226.25 114.69 226.29 84.64 226.08 54.59 C 226.55 54.54 227.48 54.46 227.95 54.41 L 226.25 54.27 C 226.19 52.30 226.17 50.33 226.08 48.36 C 210.72 48.23 195.37 48.40 180.00 48.30 C 180.67 46.11 181.34 43.91 181.95 41.70 C 196.73 41.60 211.50 41.87 226.28 41.55 C 226.15 36.92 226.41 32.28 226.15 27.65 C 212.77 27.44 199.38 27.77 186.00 27.53 Z"
     id="path3067" />
  <path
     fill="#123eca"
     d=" M 364.23 43.19 C 364.27 35.33 364.22 27.47 364.28 19.61 C 378.10 19.73 391.92 19.64 405.74 19.64 C 405.22 21.89 403.01 22.54 401.26 23.60 C 402.74 23.22 404.21 22.81 405.72 22.49 C 405.77 21.50 405.82 20.50 405.87 19.51 C 448.56 19.90 491.26 19.41 533.95 19.70 C 543.26 20.00 553.03 19.95 561.61 24.13 C 573.26 29.46 581.43 42.03 580.79 54.94 C 580.88 67.37 573.14 79.36 561.92 84.59 C 567.93 86.92 573.96 89.77 578.48 94.49 C 581.84 97.77 583.92 102.06 585.94 106.24 C 584.08 107.16 581.99 107.18 579.99 107.34 C 582.16 107.55 584.35 107.74 586.54 107.84 C 586.83 111.92 587.99 115.95 587.54 120.08 C 586.59 136.77 574.52 153.77 557.19 155.96 C 557.78 156.03 558.37 156.10 558.97 156.17 C 554.94 156.38 550.97 157.20 546.94 157.36 C 522.20 158.09 497.44 157.67 472.69 157.80 C 472.71 119.61 472.76 81.43 472.70 43.24 C 459.32 43.26 445.94 43.16 432.57 43.31 C 432.42 81.59 432.64 119.87 432.38 158.15 C 423.17 157.55 413.92 157.76 404.69 157.85 C 404.78 119.66 404.66 81.47 404.74 43.28 C 391.24 43.17 377.73 43.35 364.23 43.19 Z"
     id="path3069" />
  <path
     fill="#123eca"
     d=" M 53.20 48.26 C 53.87 46.11 54.49 43.95 55.02 41.76 C 58.93 41.68 62.85 41.71 66.76 41.69 C 66.21 43.79 65.74 45.91 65.06 47.97 C 61.23 48.80 57.13 47.98 53.20 48.26 Z"
     id="path3071" />
  <path
     fill="#123eca"
     d=" M 77.98 41.77 C 82.15 41.66 86.32 41.62 90.48 41.80 C 89.88 44.04 89.19 46.26 88.38 48.43 C 84.37 48.19 80.35 48.28 76.33 48.35 C 76.96 46.17 77.49 43.98 77.98 41.77 Z"
     id="path3073" />
  <path
     fill="#123eca"
     d=" M 99.94 48.25 C 100.49 46.03 101.12 43.83 101.86 41.67 C 110.06 41.80 118.25 41.58 126.45 41.77 C 125.78 43.95 125.11 46.13 124.43 48.30 C 116.27 48.39 108.11 48.23 99.94 48.25 Z"
     id="path3075" />
  <path
     fill="#123eca"
     d=" M 137.62 41.77 C 148.60 41.70 159.59 41.66 170.58 41.75 C 169.94 43.95 169.26 46.14 168.51 48.31 C 157.62 48.30 146.74 48.24 135.85 48.35 C 136.39 46.15 136.98 43.95 137.62 41.77 Z"
     id="path3077" />
  <path
     fill="#ffffff"
     d=" M 500.64 42.66 C 511.76 42.68 522.88 42.54 533.99 42.83 C 539.43 43.41 545.73 42.88 549.82 47.22 C 554.93 51.98 554.62 59.56 553.24 65.81 C 553.15 65.23 553.06 64.64 552.98 64.05 C 551.30 70.47 544.35 74.06 538.09 74.44 C 525.55 74.94 513.00 74.72 500.46 74.69 C 500.59 64.02 500.31 53.33 500.64 42.66 Z"
     id="path3079" />
  <path
     fill="#123eca"
     d=" M 49.05 62.49 C 53.01 62.26 56.98 62.39 60.94 62.50 C 59.38 67.43 58.04 72.43 56.49 77.37 C 52.68 77.26 48.86 77.33 45.05 77.23 C 46.17 72.26 47.72 67.41 49.05 62.49 Z"
     id="path3081" />
  <path
     fill="#123eca"
     d=" M 72.14 62.42 C 76.30 62.40 80.47 62.36 84.63 62.42 C 83.09 67.38 81.76 72.39 80.14 77.33 C 76.09 77.29 72.04 77.33 68.00 77.37 C 69.08 72.31 70.85 67.43 72.14 62.42 Z"
     id="path3083" />
  <path
     fill="#123eca"
     d=" M 95.81 62.45 C 104.08 62.41 112.34 62.33 120.61 62.41 C 118.94 67.32 117.70 72.36 116.26 77.34 C 108.02 77.40 99.78 77.32 91.54 77.28 C 92.89 72.31 94.37 67.39 95.81 62.45 Z"
     id="path3085" />
  <path
     fill="#123eca"
     d=" M 131.67 62.41 C 142.66 62.37 153.66 62.42 164.66 62.32 C 163.15 67.32 161.98 72.44 160.21 77.36 C 149.30 77.16 138.40 77.49 127.50 77.24 C 128.89 72.30 130.34 67.37 131.67 62.41 Z"
     id="path3087" />
  <path
     fill="#123eca"
     d=" M 175.85 62.41 C 191.37 62.20 206.91 62.76 222.43 62.16 C 221.35 67.31 219.62 72.29 218.15 77.33 C 202.64 77.22 187.12 77.52 171.61 77.25 C 173.15 72.34 174.54 67.39 175.85 62.41 Z"
     id="path3089" />
  <path
     fill="#123eca"
     d=" M 40.79 91.30 C 44.70 91.22 48.61 91.27 52.53 91.30 C 50.32 98.94 48.15 106.59 45.98 114.25 C 42.05 114.22 38.12 114.19 34.18 114.27 C 36.34 106.60 38.73 99.00 40.79 91.30 Z"
     id="path3091" />
  <path
     fill="#123eca"
     d=" M 63.72 91.33 C 67.91 91.25 72.10 91.16 76.29 91.26 C 73.90 98.92 72.06 106.76 69.30 114.30 C 67.63 114.25 65.95 114.21 64.28 114.19 C 64.01 113.12 63.74 112.05 63.47 110.99 C 63.60 111.79 63.86 113.40 63.99 114.20 C 61.80 114.22 59.60 114.24 57.40 114.24 C 59.01 106.48 61.87 99.04 63.72 91.33 Z"
     id="path3093" />
  <path
     fill="#123eca"
     d=" M 86.96 91.64 C 95.28 90.74 103.70 91.51 112.06 91.20 C 110.17 98.78 107.80 106.24 105.52 113.72 L 104.93 114.15 C 96.99 114.37 89.04 114.17 81.10 114.19 C 82.43 106.51 85.80 99.35 86.96 91.64 Z"
     id="path3095" />
  <path
     fill="#123eca"
     d=" M 123.28 91.56 C 134.29 90.81 145.36 91.46 156.39 91.17 C 154.29 98.63 151.93 106.02 150.11 113.56 C 139.16 115.08 128.00 113.89 116.96 114.19 C 118.78 106.57 121.26 99.12 123.28 91.56 Z"
     id="path3097" />
  <path
     fill="#123eca"
     d=" M 167.58 91.15 C 183.15 91.37 198.72 91.26 214.28 91.24 C 211.98 98.96 209.72 106.70 207.46 114.45 C 206.00 114.27 204.56 114.10 203.10 113.92 C 201.14 114.24 199.14 114.23 197.16 114.07 C 185.10 114.37 173.02 114.22 160.95 114.22 C 163.05 106.50 165.40 98.85 167.58 91.15 Z"
     id="path3099" />
  <path
     fill="#ffffff"
     d=" M 500.50 97.94 C 516.43 98.11 532.63 96.59 548.34 99.83 C 552.54 102.06 556.64 105.28 558.16 109.97 C 559.96 116.06 559.45 123.25 555.34 128.32 C 551.57 132.68 545.64 134.47 540.02 134.49 C 526.83 134.74 513.64 134.65 500.46 134.64 C 500.40 122.41 500.44 110.17 500.50 97.94 Z"
     id="path3101" />
  <path
     fill="#123eca"
     d=" M 76.72 128.29 C 84.97 127.32 93.28 128.57 101.56 128.11 C 98.61 137.84 95.62 147.56 93.12 157.41 C 84.85 157.61 76.59 157.59 68.32 157.49 C 71.18 147.77 73.96 138.03 76.72 128.29 Z"
     id="path3103" />
  <path
     fill="#123eca"
     d=" M 116.37 128.59 C 123.50 127.01 130.80 128.57 138.01 128.11 C 140.57 127.93 143.14 127.80 145.70 127.95 C 142.98 137.84 139.71 147.58 137.16 157.52 C 126.18 157.65 115.19 157.45 104.21 157.61 C 106.94 147.84 109.87 138.13 112.74 128.40 C 113.49 128.27 114.99 128.00 115.74 127.86 C 115.92 128.57 116.28 129.99 116.46 130.69 C 116.44 130.17 116.39 129.12 116.37 128.59 Z"
     id="path3105" />
  <path
     fill="#123eca"
     d=" M 156.75 128.21 C 172.35 128.40 187.96 127.80 203.56 128.06 C 201.68 134.53 199.85 141.02 197.89 147.47 C 197.44 147.47 196.53 147.46 196.08 147.46 C 196.48 147.62 197.27 147.94 197.66 148.10 C 197.01 151.28 195.84 154.32 195.14 157.49 C 179.52 157.72 163.89 157.42 148.27 157.60 C 151.09 147.80 154.10 138.06 156.75 128.21 Z"
     id="path3107" />
  <path
     fill="#123eca"
     d=" M 30.13 128.19 C 34.05 127.85 38.00 128.25 41.93 127.83 C 39.20 137.77 36.15 147.63 33.34 157.55 C 29.41 157.51 25.46 157.70 21.54 157.27 C 24.72 147.68 27.44 137.93 30.13 128.19 Z"
     id="path3109" />
  <path
     fill="#123eca"
     d=" M 59.86 130.19 C 59.80 129.45 59.67 127.96 59.61 127.22 C 61.32 128.52 63.62 127.87 65.61 128.20 C 62.73 137.91 59.75 147.60 57.13 157.39 C 52.92 157.57 48.70 157.58 44.49 157.54 C 47.53 147.84 50.37 138.06 52.91 128.23 C 54.86 128.19 56.82 128.17 58.77 128.17 C 58.80 129.88 57.11 130.89 57.22 132.64 C 58.02 131.74 58.92 130.94 59.86 130.19 Z"
     id="path3111" />
  <path
     fill="#123eca"
     d=" M 17.26 153.21 C 17.85 153.76 17.85 153.76 17.26 153.21 Z"
     id="path3113" />
  <rect
     style="fill:#ffffff"
     id="rect3123"
     width="25.293285"
     height="13.880461"
     x="737.20673"
     y="-0.83737898"
     transform="scale(0.8,0.8)" />
  <rect
     style="fill:#ffffff"
     id="rect3125"
     width="12.646643"
     height="9.2536411"
     x="756.02246"
     y="-8.5487461"
     transform="scale(0.8,0.8)" />
  <rect
     style="fill:#ffffff"
     id="rect3127"
     width="2.4676375"
     height="28.686287"
     x="316.16605"
     y="103.42031"
     transform="scale(0.8,0.8)" />
  <rect
     style="fill:#ffffff"
     id="rect3129"
     width="9.8705502"
     height="19.7411"
     x="317.39987"
     y="129.94742"
     transform="scale(0.8,0.8)" />
  <rect
     style="fill:#ffffff"
     id="rect3131"
     width="2.1591828"
     height="60.148666"
     x="315.24069"
     y="88.30603"
     transform="scale(0.8,0.8)" />
  <rect
     style="fill:#ffffff"
     id="rect3133"
     width="3.3930016"
     height="0.30845469"
     x="322.0267"
     y="149.38005"
     transform="scale(0.8,0.8)" />
  <rect
     style="fill:#ffffff"
     id="rect3137"
     width="3.3930016"
     height="57.372574"
     x="314.93225"
     y="87.072212"
     transform="scale(0.8,0.8)" />
</svg>
